<svg xmlns="http://www.w3.org/2000/svg" width="441.3" height="311" viewBox="0 0 441.3 311"><path fill="#F6F6F5" d="M438.3 311h3v-10.6L430.6 311h7.7zm-36.7 0l39.6-39.4v-27.7L373.8 311h27.8zm-56 0l95.7-95.2V213l-98.5 98h2.8zM323.5 1.1V1v.1zm-1.8 0V1v.1zm7.2 309.9l112.4-112.3v-12.9L316 311h12.9zM296.5 1.1zm-25.3 0V1v.1zM286.7 311l154.6-153.8v-27.7L258.9 311h27.8zm-56.1 0l210.6-209.6v-2.8L227.8 311h2.8zm-10-277.3L254.4 0h-27.8l-6 6-6-6h-27.8l33.8 33.7zm0 41.7L296 0h-12.9l-1 1-.1.1h.1l-61.4 61.4L158.1 0h-12.9l75.4 75.4zm0 16.9L313.3 0h-2.8l-89.9 89.5L130.7 0h-2.8l92.7 92.3zm0 55.7L369.3 0h-27.8l-121 120.4L99.6 0H71.8l148.8 148zm0 42L410.7 0h-12.9L220.6 177.1 43.4 0H30.5l190.1 190zm0 16.6L428.2 0h-2.8L220.6 203.9 15.7 0h-2.8l207.7 206.6zM0 311h10.5L0 300.5V311zm0-39.3L39.5 311h27.8L0 244v27.7zm0-55.8L95.6 311h2.8L0 213.1v2.8zm0-17.1L112.3 311h12.9L0 185.8v13zm0-41.5L154.5 311h27.8L0 129.6v27.7zm0-55.8L210.5 311h2.8L0 98.7v2.8zm0-17.3l220.6 220.5L441.3 84.1v-13L220.6 291.7 0 71.2v13zm0-41.3l220.6 219.5L441.3 42.8V15.2L220.6 234.8 0 15.2v27.7z"/></svg>